<svg width="32" height="32" viewBox="0 0 32 32" fill="none" xmlns="http://www.w3.org/2000/svg">
<path d="M7.74997 13.7969C7.88539 13.7969 8.03643 13.8177 8.2031 13.8594C8.36976 13.9011 8.53643 13.9584 8.7031 14.0313C8.86976 14.1042 9.03643 14.1719 9.2031 14.2344C9.36976 14.2969 9.52081 14.3594 9.65622 14.4219L9.40622 14.4532C9.32289 14.4636 9.23435 14.4688 9.1406 14.4688C8.96351 14.4688 8.80206 14.4427 8.65622 14.3907C8.51039 14.3386 8.37497 14.2709 8.24997 14.1875C8.12497 14.1042 7.99997 14.0417 7.87497 14C7.74997 13.9584 7.63539 13.9271 7.53122 13.9063C7.42706 13.9063 7.33331 13.9271 7.24997 13.9688C7.16664 14.0105 7.08331 14.0573 6.99997 14.1094C6.99997 14.0677 6.96351 14.0469 6.8906 14.0469C6.96351 13.974 7.09893 13.9167 7.29685 13.875C7.49476 13.8334 7.64581 13.8073 7.74997 13.7969ZM9.85935 14.5C10.2864 14.5 10.6771 14.573 11.0312 14.7188C10.8854 14.7709 10.7396 14.8125 10.5937 14.8438C10.4479 14.875 10.2968 14.8959 10.1406 14.9063C9.93226 14.9063 9.74476 14.8855 9.5781 14.8438C9.63018 14.7605 9.68226 14.7084 9.73435 14.6875C9.78643 14.6667 9.8281 14.6042 9.85935 14.5ZM16 3.44301e-05C17.4687 3.44301e-05 18.8802 0.192743 20.2343 0.578159C21.5885 0.963576 22.8593 1.50003 24.0468 2.18753C25.2343 2.87503 26.3177 3.71358 27.2968 4.70316C28.276 5.69274 29.1093 6.77087 29.7968 7.93753C30.4843 9.1042 31.026 10.375 31.4218 11.75C31.8177 13.125 32.0104 14.5417 32 16C32 17.4688 31.8073 18.8802 31.4218 20.2344C31.0364 21.5886 30.5 22.8594 29.8125 24.0469C29.125 25.2344 28.2864 26.3177 27.2968 27.2969C26.3073 28.2761 25.2291 29.1094 24.0625 29.7969C22.8958 30.4844 21.625 31.0261 20.25 31.4219C18.875 31.8177 17.4583 32.0105 16 32C14.5312 32 13.1198 31.8073 11.7656 31.4219C10.4114 31.0365 9.1406 30.5 7.9531 29.8125C6.7656 29.125 5.68226 28.2865 4.7031 27.2969C3.72393 26.3073 2.8906 25.2292 2.2031 24.0625C1.5156 22.8959 0.973932 21.625 0.578098 20.25C0.182265 18.875 -0.0104433 17.4584 -2.66051e-05 16C-2.66051e-05 14.5313 0.192682 13.1198 0.578098 11.7657C0.963515 10.4115 1.49997 9.14066 2.18747 7.95316C2.87497 6.76566 3.71351 5.68233 4.7031 4.70316C5.69268 3.72399 6.77081 2.89066 7.93747 2.20316C9.10414 1.51566 10.375 0.973993 11.75 0.578159C13.125 0.182326 14.5416 -0.0103822 16 3.44301e-05ZM27.9062 8.67191C27.7604 8.44274 27.6146 8.22399 27.4687 8.01566C27.3229 7.80733 27.1718 7.59378 27.0156 7.37503C26.9948 7.46878 26.9687 7.53649 26.9375 7.57816C26.9062 7.61983 26.8854 7.71358 26.875 7.85941C26.875 7.95316 26.9114 8.0417 26.9843 8.12503C27.0573 8.20837 27.151 8.2917 27.2656 8.37503C27.3802 8.45837 27.4948 8.52087 27.6093 8.56253C27.7239 8.6042 27.8229 8.64066 27.9062 8.67191ZM26.8281 7.14066C26.8281 7.22399 26.8125 7.28128 26.7812 7.31253H26.875C26.9166 7.31253 26.9479 7.31774 26.9687 7.32816L26.8281 7.14066ZM16 30C17.1875 30 18.3489 29.849 19.4843 29.5469C20.6198 29.2448 21.6927 28.8177 22.7031 28.2657C23.7135 27.7136 24.651 27.0365 25.5156 26.2344C26.3802 25.4323 27.1354 24.5365 27.7812 23.5469C27.6458 23.2344 27.5156 22.9167 27.3906 22.5938C27.2656 22.2709 27.2031 21.9375 27.2031 21.5938C27.2031 21.2188 27.2187 20.9167 27.25 20.6875C27.2812 20.4584 27.3177 20.2552 27.3593 20.0782C27.401 19.9011 27.4218 19.75 27.4218 19.625C27.4218 19.5 27.4062 19.3386 27.375 19.1407C27.3437 18.9427 27.2552 18.7292 27.1093 18.5C26.9635 18.2709 26.7708 17.948 26.5312 17.5313C26.5416 17.4584 26.5573 17.3594 26.5781 17.2344C26.5989 17.1094 26.6198 16.9792 26.6406 16.8438C26.6614 16.7084 26.6666 16.5834 26.6562 16.4688C26.6458 16.3542 26.6198 16.2552 26.5781 16.1719C26.3073 16.1407 26.026 16.0834 25.7343 16C25.4427 15.9167 25.1823 15.7917 24.9531 15.625L25.0468 15.5469C24.9114 15.5782 24.776 15.6198 24.6406 15.6719C24.5052 15.724 24.375 15.7813 24.25 15.8438C24.125 15.9063 23.9896 15.948 23.8437 15.9688C23.6979 15.9896 23.5573 16.0105 23.4218 16.0313L23.1718 16L23.2187 15.8907C23.0729 15.9323 22.9166 15.9844 22.75 16.0469C22.5833 16.1094 22.4218 16.1407 22.2656 16.1407C22.1614 16.1407 22.0104 16.1042 21.8125 16.0313C21.6146 15.9584 21.4166 15.8698 21.2187 15.7657C21.0208 15.6615 20.8437 15.5469 20.6875 15.4219C20.5312 15.2969 20.4531 15.1771 20.4531 15.0625L20.4843 15.0157C20.4323 14.9532 20.3646 14.8959 20.2812 14.8438C20.1979 14.7917 20.1198 14.7396 20.0468 14.6875C19.9739 14.6355 19.9062 14.5782 19.8437 14.5157C19.7812 14.4532 19.7552 14.3802 19.7656 14.2969L19.9375 14.1563L19.5781 14.1094L19.4531 13.6407C19.4739 13.6927 19.5208 13.7136 19.5937 13.7032C19.6666 13.6927 19.7239 13.6719 19.7656 13.6407L19.2031 13.3438L19.5937 12.3438C19.4479 11.8021 19.4114 11.3855 19.4843 11.0938C19.5573 10.8021 19.6979 10.5625 19.9062 10.375C20.1146 10.1875 20.3437 10 20.5937 9.81253C20.8437 9.62503 21.0989 9.36983 21.3593 9.04691L21.3125 8.85941L22.3437 7.60941L22.5781 7.57816C22.8698 7.57816 23.1979 7.56774 23.5625 7.54691C23.9271 7.52608 24.2968 7.48962 24.6718 7.43753C25.0468 7.38545 25.4166 7.33337 25.7812 7.28128C26.1458 7.2292 26.4791 7.16149 26.7812 7.07816C26.4479 6.68233 26.0989 6.30733 25.7343 5.95316C25.3698 5.59899 24.9791 5.26045 24.5625 4.93753C24.4479 4.9792 24.3073 5.03649 24.1406 5.10941C23.9739 5.18233 23.8073 5.27608 23.6406 5.39066C23.4739 5.50524 23.3437 5.63024 23.25 5.76566C23.1562 5.90108 23.0989 6.0417 23.0781 6.18753L23.1718 6.48441C22.9843 6.78649 22.776 6.97399 22.5468 7.04691C22.3177 7.11983 22.0833 7.16149 21.8437 7.17191C21.6041 7.18233 21.3541 7.18233 21.0937 7.17191C20.8333 7.16149 20.5833 7.20837 20.3437 7.31253L20.0937 6.78128L20.3281 5.87503L20.0625 5.48441L22.7656 4.64066C22.651 4.34899 22.4635 4.13024 22.2031 3.98441C21.9427 3.83858 21.6562 3.76566 21.3437 3.76566V3.60941L22.2187 3.46878C21.25 2.98962 20.2448 2.62503 19.2031 2.37503C18.1614 2.12503 17.0937 2.00003 16 2.00003C15.0937 2.00003 14.1979 2.08858 13.3125 2.26566C12.4271 2.44274 11.5729 2.69795 10.75 3.03128C9.92706 3.36462 9.13018 3.78128 8.35935 4.28128C7.58851 4.78128 6.88539 5.34378 6.24997 5.96878C6.52081 5.96878 6.72914 6.03649 6.87497 6.17191C7.02081 6.30733 7.15622 6.45837 7.28122 6.62503C7.40622 6.7917 7.53643 6.94274 7.67185 7.07816C7.80726 7.21358 7.98956 7.28649 8.21872 7.29691L8.46872 7.10941L8.43747 6.76566L8.9531 6.03128L8.54685 4.87503C8.59893 4.84378 8.67706 4.7917 8.78122 4.71878C8.88539 4.64587 8.97393 4.60941 9.04685 4.60941C9.35935 4.60941 9.59893 4.62503 9.7656 4.65628C9.93226 4.68753 10.0781 4.74483 10.2031 4.82816C10.3281 4.91149 10.4375 5.03128 10.5312 5.18753C10.625 5.34378 10.7708 5.5417 10.9687 5.78128L11.5312 5.34378C11.6354 5.38545 11.8021 5.45316 12.0312 5.54691C12.2604 5.64066 12.4948 5.75524 12.7343 5.89066C12.9739 6.02608 13.1771 6.1667 13.3437 6.31253C13.5104 6.45837 13.5989 6.59378 13.6093 6.71878C13.6093 6.87503 13.5521 7.00003 13.4375 7.09378C13.3229 7.18753 13.1718 7.26566 12.9843 7.32816C12.7968 7.39066 12.6041 7.43753 12.4062 7.46878C12.2083 7.50003 12.0104 7.5417 11.8125 7.59378C11.6146 7.64587 11.4635 7.69795 11.3593 7.75003C11.2552 7.80212 11.1927 7.89066 11.1718 8.01566L12.0781 8.31253C11.8698 8.48962 11.6458 8.65108 11.4062 8.79691C11.1666 8.94274 10.9166 9.07816 10.6562 9.20316L10.7187 9.46878L9.28122 10.0313V10.4688L9.17185 10.5157L9.24997 9.96878L9.18747 9.95316C9.11456 9.95316 9.07289 9.96878 9.06247 10C9.05206 10.0313 9.04685 10.0677 9.04685 10.1094C9.04685 10.1511 9.05726 10.1927 9.0781 10.2344C9.09893 10.2761 9.10414 10.3073 9.09372 10.3282L8.8906 10.2188L8.92185 10.2813C8.92185 10.3125 8.93747 10.3594 8.96872 10.4219C8.99997 10.4844 9.04164 10.5417 9.09372 10.5938C9.14581 10.6459 9.18747 10.698 9.21872 10.75C9.24997 10.8021 9.27081 10.8282 9.28122 10.8282C9.28122 10.8594 9.26039 10.8907 9.21872 10.9219C9.17706 10.9532 9.12497 10.974 9.06247 10.9844C8.99997 10.9948 8.95831 11.0105 8.93747 11.0313C8.91664 11.0521 8.91664 11.0573 8.93747 11.0469C9.08331 11.0469 9.11456 11.0573 9.03122 11.0782C8.94789 11.099 8.81768 11.1511 8.6406 11.2344C8.46351 11.3177 8.30206 11.4375 8.15622 11.5938C8.01039 11.75 7.92706 11.9792 7.90622 12.2813C7.90622 12.4584 7.91143 12.6302 7.92185 12.7969C7.93226 12.9636 7.92706 13.1355 7.90622 13.3125C7.76039 12.9167 7.54164 12.6146 7.24997 12.4063C6.95831 12.198 6.60414 12.0938 6.18747 12.0938L5.5156 12.1563L5.84372 12.375C5.66664 12.3542 5.48435 12.3334 5.29685 12.3125C5.10935 12.2917 4.91664 12.2865 4.71872 12.2969C4.52081 12.3073 4.34372 12.349 4.18747 12.4219C4.03122 12.4948 3.87497 12.6042 3.71872 12.75L3.62497 13.4532C3.62497 13.7865 3.69789 14.0573 3.84372 14.2657C3.98956 14.474 4.24476 14.5834 4.60935 14.5938C4.92185 14.5938 5.22914 14.5469 5.53122 14.4532C5.83331 14.3594 6.13018 14.25 6.42185 14.125C6.3281 14.3542 6.22393 14.573 6.10935 14.7813C5.99476 14.9896 5.91143 15.2188 5.85935 15.4688L6.06247 15.5625C6.31247 15.3959 6.54164 15.3698 6.74997 15.4844C6.95831 15.599 7.16143 15.7657 7.35935 15.9844C7.55726 16.2032 7.76039 16.4271 7.96872 16.6563C8.17706 16.8855 8.40101 17.0521 8.6406 17.1563L8.10935 17.4375L6.85935 16.7344C6.86976 16.7552 6.88018 16.8021 6.8906 16.875C6.90101 16.948 6.89581 16.9636 6.87497 16.9219L6.31247 15.9688C5.97914 15.9584 5.62497 15.9063 5.24997 15.8125C4.87497 15.7188 4.49476 15.5938 4.10935 15.4375C3.72393 15.2813 3.36456 15.1094 3.03122 14.9219C2.69789 14.7344 2.3906 14.5365 2.10935 14.3282L1.99997 16C1.99997 17.2709 2.17185 18.5105 2.5156 19.7188C2.85935 20.9271 3.34372 22.0625 3.96872 23.125C4.59372 24.1875 5.35935 25.1563 6.2656 26.0313C7.17185 26.9063 8.17706 27.6511 9.28122 28.2657C9.22914 28.0469 9.22393 27.8282 9.2656 27.6094C9.30726 27.3907 9.35935 27.1719 9.42185 26.9532C9.48435 26.7344 9.55206 26.5157 9.62497 26.2969C9.69789 26.0782 9.73435 25.8542 9.73435 25.625C9.73435 25.2917 9.68226 24.9427 9.5781 24.5782C9.47393 24.2136 9.34893 23.8438 9.2031 23.4688C9.05726 23.0938 8.89581 22.724 8.71872 22.3594C8.54164 21.9948 8.40101 21.6511 8.29685 21.3282C8.19268 21.0052 8.10935 20.7032 8.04685 20.4219C7.98435 20.1407 8.0156 19.8959 8.1406 19.6875L7.90622 19.5782C7.96872 19.4323 8.05206 19.2917 8.15622 19.1563C8.26039 19.0209 8.36976 18.8855 8.48435 18.75C8.59893 18.6146 8.68747 18.4688 8.74997 18.3125C8.81247 18.1563 8.84893 18 8.85935 17.8438C8.85935 17.7396 8.83851 17.6302 8.79685 17.5157C8.75518 17.4011 8.71872 17.2917 8.68747 17.1875L9.0156 17.2657C9.19268 16.8594 9.43226 16.5834 9.73435 16.4375C10.0364 16.2917 10.4166 16.2136 10.875 16.2032C10.9271 16.2032 11.0364 16.224 11.2031 16.2657C11.3698 16.3073 11.5468 16.3646 11.7343 16.4375C11.9218 16.5105 12.0989 16.5677 12.2656 16.6094C12.4323 16.6511 12.5573 16.6927 12.6406 16.7344C12.6406 16.8073 12.6823 16.8542 12.7656 16.875C12.8489 16.8959 12.8958 16.9323 12.9062 16.9844L12.875 17.1094C12.9062 17.1198 12.9791 17.1563 13.0937 17.2188C13.2083 17.2813 13.3333 17.3594 13.4687 17.4532C13.6041 17.5469 13.7239 17.6302 13.8281 17.7032C13.9323 17.7761 14.0052 17.8334 14.0468 17.875C14.2343 17.875 14.4896 17.9375 14.8125 18.0625C15.1354 18.1875 15.4896 18.3438 15.875 18.5313C16.2604 18.7188 16.6406 18.9427 17.0156 19.2032C17.3906 19.4636 17.7448 19.724 18.0781 19.9844C18.4114 20.2448 18.6666 20.5052 18.8437 20.7657C19.0208 21.0261 19.125 21.2552 19.1562 21.4532L18.625 22.0157C18.6666 22.5469 18.6302 22.9532 18.5156 23.2344C18.401 23.5157 18.2239 23.75 17.9843 23.9375C17.7448 24.125 17.4687 24.2813 17.1562 24.4063C16.8437 24.5313 16.5052 24.7084 16.1406 24.9375C16.1406 25.1459 16.0885 25.3698 15.9843 25.6094C15.8802 25.849 15.75 26.0782 15.5937 26.2969C15.4375 26.5157 15.25 26.698 15.0312 26.8438C14.8125 26.9896 14.5937 27.0625 14.375 27.0625L13.7187 26.5625C13.7396 26.5834 13.7396 26.6198 13.7187 26.6719C13.6979 26.724 13.6718 26.7344 13.6406 26.7032C13.7448 26.9011 13.7708 27.1302 13.7187 27.3907C13.6666 27.6511 13.5781 27.9167 13.4531 28.1875C13.3281 28.4584 13.1875 28.7136 13.0312 28.9532C12.875 29.1927 12.7343 29.3959 12.6093 29.5625C13.1718 29.7084 13.7343 29.8177 14.2968 29.8907C14.8593 29.9636 15.4271 30 16 30Z" fill="#8A2BE2"/>
</svg>